<?xml version="1.0" encoding="UTF-8"?>
<svg xmlns="http://www.w3.org/2000/svg" width="512" height="512" viewBox="0 0 512 512" role="img" aria-label="Timesheet Helper Icon">
  <defs>
    <linearGradient id="bgGrad" x1="0" y1="0" x2="1" y2="1">
      <stop offset="0%" stop-color="#4F46E5"/>
      <stop offset="100%" stop-color="#06B6D4"/>
    </linearGradient>
    <linearGradient id="clockGrad" x1="0" y1="0" x2="1" y2="1">
      <stop offset="0%" stop-color="#22D3EE"/>
      <stop offset="100%" stop-color="#2563EB"/>
    </linearGradient>
  </defs>

  <!-- Rounded gradient backdrop -->
  <rect x="16" y="16" width="480" height="480" rx="112" fill="url(#bgGrad)"/>

  <!-- Timesheet card -->
  <!-- subtle shadow -->
  <rect x="94" y="108" width="324" height="320" rx="36" fill="#000" opacity="0.12"/>
  <g>
    <rect x="88" y="96" width="324" height="320" rx="36" fill="#FFFFFF"/>
    <rect x="88" y="96" width="324" height="88" rx="36" ry="36" fill="#E2E8F0"/>

    <!-- minimal rows to suggest timesheet lines (kept thick for 16px legibility) -->
    <rect x="120" y="212" width="180" height="18" rx="9" fill="#CBD5E1"/>
    <rect x="120" y="252" width="140" height="18" rx="9" fill="#E5E7EB"/>
    <rect x="120" y="292" width="200" height="18" rx="9" fill="#E5E7EB"/>
  </g>

  <!-- Clock (automation + time) -->
  <g transform="translate(256,300)">
    <circle cx="0" cy="0" r="100" fill="url(#clockGrad)"/>
    <circle cx="0" cy="0" r="100" fill="none" stroke="#FFFFFF" stroke-width="10" opacity="0.25"/>

    <!-- ticks -->
    <rect x="-6" y="-92" width="12" height="28" rx="6" fill="#FFFFFF"/>
    <rect x="64" y="-6" width="28" height="12" rx="6" fill="#FFFFFF"/>
    <rect x="-6" y="64" width="12" height="28" rx="6" fill="#FFFFFF"/>
    <rect x="-92" y="-6" width="28" height="12" rx="6" fill="#FFFFFF"/>

    <!-- hands -->
    <line x1="0" y1="0" x2="0" y2="-70" stroke="#FFFFFF" stroke-width="16" stroke-linecap="round"/>
    <line x1="0" y1="0" x2="52" y2="30" stroke="#FFFFFF" stroke-width="16" stroke-linecap="round"/>
    <circle cx="0" cy="0" r="10" fill="#FFFFFF"/>
  </g>

  <!-- small sparkle to suggest automation/assist -->
  <g transform="translate(360,140) rotate(20)" opacity="0.9">
    <rect x="-4" y="-22" width="8" height="44" rx="4" fill="#A5F3FC"/>
    <rect x="-4" y="-22" width="8" height="44" rx="4" fill="#FFFFFF" opacity="0.6" transform="rotate(90)"/>
  </g>
</svg>


